Coordinates
nRows=4
nColumns=38

# SIMM Motion File Header:
name Coordinates
datacolumns 38
datarows 4
otherdata 1
range 1.07000000000000010000 1.07300000000000000000

Units are S.I. units (second, meters, Newtons, ...)
Angles are in degrees.

endheader
time	pelvis_tilt	pelvis_list	pelvis_rotation	pelvis_tx	pelvis_ty	pelvis_tz	hip_flexion_r	hip_adduction_r	hip_rotation_r	knee_angle_r	ankle_angle_r	subtalar_angle_r	mtp_angle_r	hip_flexion_l	hip_adduction_l	hip_rotation_l	knee_angle_l	ankle_angle_l	subtalar_angle_l	mtp_angle_l	lumbar_extension	lumbar_bending	lumbar_rotation	arm_flex_r	arm_add_r	arm_rot_r	elbow_flex_r	pro_sup_r	wrist_flex_r	wrist_dev_r	arm_flex_l	arm_add_l	arm_rot_l	elbow_flex_l	pro_sup_l	wrist_flex_l	wrist_dev_l
      1.07000000000000010000	     -6.93342597017377390000	      0.27401701079769603000	     -0.73747429973228573000	      0.91601474980937525000	      1.00412620477352750000	     -0.35150831399949295000	      3.22540882202482360000	      6.42593594581007910000	      7.84510855917481550000	    -30.81992881300628500000	     17.66890601200613300000	     -0.00000000000000932070	      0.00000000000001278661	     47.96808589450794400000	      7.59291922231649870000	      5.62365156400936520000	    -94.87250030822268300000	      4.24781458305375460000	     -0.00000000000000591629	     -0.00000000000001366978	     -3.38480925620258690000	      5.39293196414332690000	     17.34723303420885500000	    -19.25750441072437300000	    -18.70448953096382300000	    -12.70066675886402900000	    111.72653540101169000000	     98.60075554346430200000	     -0.00000000000000221136	      0.00000000000000101487	    -37.45702970429479700000	    -19.18923104938504000000	     -2.98976473962823430000	    114.24841345781442000000	     91.95659832127248000000	      0.00000000000000027378	     -0.00000000000000334618
      1.07100000000000000000	     -6.90515030956600560000	      0.39112473114416585000	     -0.67223308538444604000	      0.91637608150716054000	      1.00492948508380580000	     -0.35164131543624078000	      2.72194125674282580000	      6.24560734041938660000	      7.81712491085277340000	    -30.46055005191427200000	     17.04844901706473300000	     -0.00000000000000971661	      0.00000000000001244489	     48.07289462125274300000	      7.76026820363874050000	      5.66013095803359700000	    -94.36024237711271200000	      4.25981231411095430000	     -0.00000000000000604309	     -0.00000000000001380181	     -3.34965594018021220000	      5.26114842027350260000	     17.39158047699105200000	    -19.27037400216693900000	    -18.63887634042436800000	    -12.54825990318847500000	    112.06996142625435000000	     98.73746249739642200000	     -0.00000000000000223264	      0.00000000000000097020	    -37.64893179306144300000	    -19.12628943919878900000	     -3.03456996648380710000	    114.39474250436368000000	     92.04481366539796700000	      0.00000000000000029967	     -0.00000000000000340748
      1.07200000000000010000	     -6.87516810305582030000	      0.51091551874537344000	     -0.60773330184441154000	      0.91674476764491486000	      1.00574036141414490000	     -0.35177345655915709000	      2.21662710159946960000	      6.06265157355094790000	      7.78545833154625560000	    -30.09802701524908700000	     16.40994777734067300000	     -0.00000000000001012394	      0.00000000000001212639	     48.16953077436968300000	      7.92882918259503900000	      5.69445374817782660000	    -93.83964814646056100000	      4.27168557956910270000	     -0.00000000000000618930	     -0.00000000000001392992	     -3.31611492809899430000	      5.12582207676715920000	     17.43471239804988900000	    -19.28382928287091100000	    -18.57245117826490200000	    -12.39315165076964600000	    112.41076341493887000000	     98.87967090624258000000	     -0.00000000000000225441	      0.00000000000000091510	    -37.84282644231473100000	    -19.06198541896778000000	     -3.08216852273776000000	    114.54167448253217000000	     92.13618034288570900000	      0.00000000000000031649	     -0.00000000000000346992
      1.07300000000000000000	     -6.84357660615659210000	      0.63332306813121897000	     -0.54397201155527797000	      0.91712053437053487000	      1.00655832856612790000	     -0.35190466503841000000	      1.70971778518307470000	      5.87714019841720070000	      7.74981724337294780000	    -29.73243287344183700000	     15.75384773217137800000	     -0.00000000000001050440	      0.00000000000001181188	     48.25810305178492100000	      8.09850652145130920000	      5.72675226438042180000	    -93.31078012266927100000	      4.28341672520589340000	     -0.00000000000000633298	     -0.00000000000001407077	     -3.28411423197257510000	      4.98703046837489160000	     17.47663036410985500000	    -19.29787735038012600000	    -18.50520185304586500000	    -12.23541688835477500000	    112.74882641330430000000	     99.02720254119195400000	     -0.00000000000000227612	      0.00000000000000084076	    -38.03863635789026900000	    -18.99633851051342900000	     -3.13245852861253790000	    114.68906139892019000000	     92.23025008030724300000	      0.00000000000000031449	     -0.00000000000000353223
